<svg xmlns="http://www.w3.org/2000/svg" viewBox="0 0 140 141"><defs><style>.cls-1,.cls-2,.cls-3{fill:none;stroke-miterlimit:10;}.cls-1{stroke:#fafafa;}.cls-2{stroke:#7d1ec5;}.cls-3{stroke:#3fe7ff;}</style></defs><g id="Layer_2" data-name="Layer 2"><path class="cls-1" d="M30,37.47S8.82,53.38,12.8,72s8,19.89,8,19.89-2.66,6.64-1.33,9.29S26.06,114.39,30,114.39s5.31-1.32,9.29,0,15.91,8,21.22,9.29,19.89,0,22.54-1.33,5.31-4,15.92-2.65,17.24-10.61,17.24-13.27,2.65-18.56,5.31-21.22,0-22.54,2.65-31.83S117.58,34.81,111,33.49,104.31,30.83,99,26.85s-25.2-9.28-30.51-8-11.93,4-19.89,2.65S30,26.85,30,32.16Z"/><path class="cls-2" d="M31.37,34.81S10.15,50.73,14.13,69.3s7.95,19.89,7.95,19.89-2.65,6.63-1.32,9.29,6.63,13.26,10.61,13.26,5.3-1.33,9.28,0,15.92,8,21.22,9.28,19.9,0,22.55-1.32,5.31-4,15.92-2.66,17.24-10.61,17.24-13.26,2.65-18.57,5.3-21.22,0-22.55,2.66-31.83-6.64-18.57-13.27-19.9-6.63-2.65-11.93-6.63-25.2-9.28-30.51-8-11.94,4-19.89,2.66S31.37,24.2,31.37,29.51Z"/><path class="cls-3" d="M28.71,38.79S7.49,54.71,11.47,73.28s8,19.89,8,19.89-2.65,6.63-1.33,9.28,6.64,13.27,10.61,13.27,5.31-1.33,9.29,0,15.91,8,21.22,9.28,19.89,0,22.55-1.32,5.3-4,15.91-2.66,17.24-10.61,17.24-13.26,2.66-18.57,5.31-21.22,0-22.55,2.65-31.83-6.63-18.57-13.26-19.9S103,32.16,97.68,28.18s-25.2-9.28-30.5-8-11.94,4-19.9,2.66-18.57,5.3-18.57,10.61Z"/></g></svg>