<svg xmlns="http://www.w3.org/2000/svg" viewBox="0 0 688.57 387.32"><defs><style>.cls-1{fill:#fefefe;}.cls-2{fill:#5296b7;}.cls-3{fill:#b1817f;}.cls-4{fill:#d2a5a4;}.cls-5{fill:#88b4d7;}.cls-6{fill:#855ab4;}.cls-7{fill:#6c4a3d;}.cls-8{fill:#9d974c;}.cls-9{fill:#9ab67a;}.cls-10{fill:#a0625a;}.cls-11{fill:#6b8f3b;}.cls-12{fill:#787575;}.cls-13{fill:#4bad78;}.cls-14{fill:#b0a58a;}.cls-15{fill:#6a21b7;}</style></defs><g id="Layer_2" data-name="Layer 2"><path d="M688.12,387.29q-343.17,0-686.35,0c-1.4,0-1.77-.21-1.77-1.71Q.08,193,0,.39L24.93.46c-.28,1.67.83,2.19,2.12,2.61.5-1.06-1-1.63-.57-2.62l15.57,0c0,.41,0,.82,0,1.23s-.45,1.26.29,1.54a2.16,2.16,0,0,0,1.89-.08c.51-.34.13-1,.13-1.49A6.37,6.37,0,0,0,44.16.44c.72,0,1.43,0,2.15,0H543.48q28,0,56.08,0c.35.54-.54,1.64.55,1.72s1.27-.84,1.33-1.72h60.31c-.39,1.11.31,1.81.9,2.61.35.48.64,1.22,1.22,1.08a1.53,1.53,0,0,0,1-1.51c0-.66-.13-1.17-1-1.11s-.55-.64-.75-1c7.64,0,15.28,0,22.92-.14,1.7,0,2.13.34,2.13,2.09q-.09,84.36,0,168.71c0,.65-.07,1.3-.11,1.95-1.19-.12-.91.81-.94,1.41s-.11,1.48,1,1.43c0,.71.07,1.43.07,2.14Zm-625-46.21.68-.05c1.07.2.84-.66.74-1.09s.64-1.61-.71-1.66c-1.56-.25-1.45.79-1.36,1.8-.83.15-1.8,0-1.54,1.47.17,1,.39,1.53,1.48,1.24,1.38-.09.29-1.23.73-1.72ZM322.63,199.6c-.09.55-.18,1.08.66,1.06s1.44-.08,1.42-1.08c.38-.39,1.2-.47,1-1.28s-.86-.48-1.35-.54a3.49,3.49,0,0,0-.71.07C321.89,197.64,322.78,198.91,322.63,199.6ZM98.94,293.48c-1-.15-.68.6-.68,1,0,.9.76.88,1.37,1a.67.67,0,0,0,.83.28c1-.86,1-1.8-.1-2.4Zm424.69,52.33c-.44,0-1-.21-1,.51s-.22,1.2.67,1.27c0,.76.49.76,1,.58.84-.32.42-1.1.48-1.69C524.77,345.65,524.2,345.7,523.63,345.81ZM66.35,344.32c.63-.43.27-1.05.29-1.6s-.2-.89-.8-.91c-.78,0-.53.6-.62,1-1,.13-.81,1-.59,1.45C65,345,65.75,344.7,66.35,344.32Zm587-266.14c.5-.07,1.13.09,1.06-.78,0-.4-.12-.74-.58-.68s-1.51-.55-1.64.67c-.46.73-.66,1.74.12,2.08C653.33,79.91,653.28,78.85,653.37,78.18ZM429,100.79c-.5-.1-1.17-.39-1.36.24a2.93,2.93,0,0,0,.12,1.87c.23.52.8.13,1.21,0,.62.55.69,0,.73-.4C429.8,101.8,430,101,429,100.79ZM183.59,26.15a1.19,1.19,0,0,0,1.1,1.68,1.14,1.14,0,0,0,.88-1.69c.2-.77-.18-1-.89-1.05S183.45,25.28,183.59,26.15Zm28.13,148.79c-.76.18-.78,1-1.25,1.47-.12.12-.55,1.38.7,1.18.53,0,1.54.62,1.34-.58C212.41,176.34,213.5,175,211.72,174.94Zm245.66-8.3c-.07.56-.11,1.12.72,1,.56-.06,1.28.3,1.62-.28a1,1,0,0,0-.53-1.45,2.25,2.25,0,0,0-1.81-1.09ZM39.47,158.77a1,1,0,0,0,1.45.57c.63-.43.33-1.27.33-2,.1-1.18-.87-.95-1.3-.73A1.27,1.27,0,0,0,39.47,158.77ZM366.31,49.22c-.89-.32-1.08.08-1.11.92-.05,1.51,1,1.09,1.79,1.1,1.32,0,.72-1,.69-1.55C367.63,48.68,366.81,49.3,366.31,49.22ZM351.09,62.09c.35-2.08-1.25-.86-2-1.15-1.43-.31-1.07.69-1.13,1.47-.12,1.56.91,1.3,1.84,1.25C351.38,64,351.19,63,351.09,62.09ZM254.18,293.82c-.09.48-.79,1.12.29,1.33.7.14,1.3,0,1.43-.84,0-.29.06-.58.1-.87.4-.32.46-.82,0-1a2.21,2.21,0,0,0-2.05.07A.76.76,0,0,0,254.18,293.82Zm-76.67-29.7c.36,1.39,1.6.68,2.12.54s.44-1.13,0-1.72c-.09-1.09-.92-1.23-1.63-1C176.89,262.39,177.75,263.41,177.51,264.12ZM491.73,243c0,.79.48.57,1,.52s.77-.44.79-1,.12-1.13-.73-1c-.69-.27.33-1.6-1-1.52-.73.05-1.12.32-.92,1.11C489.93,242.35,490.08,242.68,491.73,243ZM1.42,134c-.32.63-.6,1.29.49,1.38.66.06,1.58.3,1.26-1-.06-.71.6-1.75-.82-1.83C1.26,132.51,1.37,133.29,1.42,134ZM407.07,13.31c-.09-.44-.17-.88-.27-1.41-1.05.6-2,1.11-1.74,2.51.06,1.14.94.7,1.43.61C407.54,14.83,407.1,14,407.07,13.31Zm11.48,199.06a2.22,2.22,0,0,0,2.18-1.35c.2.48-.3,1.28.63,1.42.27,0,.73.2.77-.15.07-.86.3-1.93-.11-2.54s-1.06.27-1.57.6a2.27,2.27,0,0,0-1.52-.34c-.31-.16-.87-.72-.91-.21C417.94,210.64,417.24,211.78,418.55,212.37Zm23.35-2.2c.41.32,1,.9,1.32.26a2.84,2.84,0,0,0,0-2.42c-.16-.38-.71-.31-1,.13-.44.38-1-.79-1.31.05a2.6,2.6,0,0,0,.16,2.06C441.31,210.72,441.65,210.44,441.9,210.17ZM17.24,76.69c0-.8-.55-1.39-1.21-.87-.48.37-.29,1.34-.19,2,.13.92.83.59,1.38.56.73.07,1.09-.21,1.11-1S17.76,76.71,17.24,76.69Zm357.7,231.57c.75.22,1.37.27,1.42-.81.06-1.32-.64-1.61-1.76-1.45-1.86-.39-1.13,1.05-1.12,1.75C373.48,309,374.31,308.47,374.94,308.26ZM243.69,246.43c-.31.64-.66,1.39.23,1.77s.87-.45,1-1c1.23-.44.7-1.54.56-2.18s-1.19-.4-1.66-.22C242.94,245.13,243.68,245.86,243.69,246.43ZM191,297.77c-1.29.09-.6,1.09-.69,1.66s-.35,1.3.73,1.06c2.21.17,1.16-1.52,1.37-2.46.07-.34.22-.89-.4-1A.8.8,0,0,0,191,297.77ZM326.93,18.38c.17.44-1,1.33.45,1.34.61,0,1.56.25,1.23-.84-.23-.79,1.24-2.56-1.14-2.28L326,16.26C325.52,17.42,326.13,18,326.93,18.38ZM103.92,214c.26-.9,1.57-2.13-.7-2.22s-2.61.14-1.7,1.94C102.09,214.83,103.08,214.17,103.92,214ZM525.46,64.81c.35,1.48,1.54.51,2.31.77.3.1.83,0,.78-.46-.06-.69-.15-1.45-1-1.64C525.74,62.73,525.47,62.9,525.46,64.81ZM511.39,267a4.65,4.65,0,0,1,.21-1.57c.12-.41.69-1-.17-1.31a1.18,1.18,0,0,0-1.5.6c-1,1.55.46,1.77,1.27,2.35-.28.59-.65,1.32-.1,1.76a1.68,1.68,0,0,0,1.6-.21c.45-.37.3-1.19.06-1.67C512.4,266.18,511.87,267.24,511.39,267ZM39.53,13.36c-.06.39-.23.89.32,1s1.29.4,1.48-.57c.32-.4.42-2.69.11-2.91a.53.53,0,0,0-.33-.08C40.28,10.85,39.3,12.46,39.53,13.36Zm328.28,199a2.73,2.73,0,0,1-.33-2.18c.17-.47.69-1-.23-1.23a1.15,1.15,0,0,0-1.56,1c-.16.8.11,1.65-.47,2.4A5.16,5.16,0,0,0,367.81,212.32Zm64.86,42.23c-.38-.51.57-1.58-.76-1.62s-1,1.15-1.16,1.92c-.22,1,.26,1.53,1.16,1.45C433.13,256.2,432.28,255.11,432.67,254.55Zm54-140.61c.27.43-.41,1.5.49,1.33,1.11-.21,1.21-1.57,1.63-2.49.06-.13-.2-.71-.94-.69C486.32,112.14,486.8,113.15,486.67,113.94ZM105,62.64c0,.62-.11,1.2.76,1.17a2,2,0,0,0,2.06-2c.14-1.33-.92-.5-1.34-.63C105.15,60.76,105.4,62.1,105,62.64ZM37.15,310.28c.79.31,1.23.19,1.31-.93.11-1.5-.94-1-1.64-1.18-.94-.21-1.23.27-1.27,1.14C35.49,310.57,36.29,310.38,37.15,310.28Zm243.91-69.93c-.2-.5.4-1.49-.79-1.37s-1.4,1.09-1.55,1.94c-.17,1.05.8.8,1.37.87C281.32,242,280.93,241,281.06,240.35Zm41,116.13c.15.94.18,1.76,1.38,1.75.83,0,.93-.46.95-1.11,0-1.34-1.09-.93-1.77-1.16S321.91,356.1,322,356.48Zm67.13-80.22c-.13-.47.52-1.58-.52-1.4-1.48.24-1.56,1.63-1.61,2.9,0,.36,0,.54.33.7C387.41,277.25,390,278.21,389.17,276.26Zm-184.69-81.4c.32-.14,1.39.26,1.26-.63a1.9,1.9,0,0,0-2.14-1.56c-1,0-.67.62-.73,1C202.71,194.77,203.36,195,204.48,194.86ZM603.23,17.57c-.84,1-.43,1.43.74,1.48.55,0,1.25,0,1-.77-.19-.53.56-1.75-.84-1.49C603.89,16.83,602.28,15.74,603.23,17.57ZM12.93,190.44c0-.65-.22-1.09-.69-.82a15.58,15.58,0,0,0-2,1.59c.57.56.88,1.85,1.52,1.71C13,192.66,12.39,191.12,12.93,190.44Zm295,20.6c.2.49-.6,1.44,1,1.42s.95-1.05,1.12-1.74c.26-1.06-.4-1.11-1.19-1.16C307.53,209.5,307.9,210.34,307.9,211Zm205-99.78c0-.87.16-1.71-1.07-1.63-.75.05-1,.4-1,1.13,0,1.07.43,1.74,1.49,1.74S512.73,111.63,512.86,111.26ZM124.21,109.9l-.28,0c.08,1-1.13,1.62-.93,2.69,0,.32.14.59.52.56.86-.06,1.19-.63,1.31-1.4,0-.09.13-.25.21-.25.55,0,1-.27.73-.87S124.78,110.11,124.21,109.9ZM635.48,322.14c0,.88.3,1.46,1.25,1.35.61-.07,1.24-.24,1.23-1,0-1-1.07-1.45-1.62-1.67C635.54,320.48,635.59,321.56,635.48,322.14ZM315.83,115.85c-.5.81-.26,1.21.76,1.25,1.36.07.9-1,1-1.58s.22-1.31-.76-1.2S315.27,114.69,315.83,115.85ZM469.5,377.35c0-.73.37-1.74-1-1.52-.59.09-1.58-.4-1.48.88s1.32,1.43,2.07,1.82C469.63,378.81,469.32,377.74,469.5,377.35ZM107.21,104.28c.15-.94-.36-1-1.14-1.08s-1.16.3-1,1.12,0,1.85,1.22,1.74C107.29,106,107.1,105,107.21,104.28Zm340.44,10c-.33-.37.56-1.52-1-1.59-2-.1-.56,1.36-1,2-.55.83.56.65,1.06.75C447.53,115.57,447.83,115.22,447.65,114.24ZM405.28,187.4c.6,0,.82-.57,1.36-.72,1.11-.32.56-1.38.47-2.07-.12-.88-1-.42-1.46-.37-1.1.11-.5.83-.28,1.28C405.67,186.17,405.23,186.76,405.28,187.4Zm166.8,15.88c-.17.72.16.95.82,1,1.07,0,1.27-.72,1.24-1.48,0-.6-.19-1.43-1-1.38C571.91,201.47,572.25,202.55,572.08,203.28ZM24.47,52.44c.84.54.14,2.47,1.72,2,.65-.21,1.41-1.08,1.06-1.87C26.52,50.87,25.41,53.59,24.47,52.44Zm400,315.07c-1.07.21-.4,1.31-.66,1.95s.26,1,.88,1a1.24,1.24,0,0,0,1.31-1.37C426.09,368.2,425.69,367.61,424.52,367.51ZM363.4,338.83c.64.81,1.08,2,2.41,1.42a1,1,0,0,0,.4-1.53C365.28,337.31,364.39,339.17,363.4,338.83ZM54.76,42c.27-.16.63-.3.62-.4-.08-1-.2-1.9-.37-2.84a.66.66,0,0,0-.56-.31c-.88.3-.9,1.27-.93,1.88A2.11,2.11,0,0,0,54.76,42ZM68.07,222.18c.13-.89.21-1.54-1-1.49-.8,0-1.16.19-1.17,1.08s.41,1.65,1.36,1.72S67.94,222.6,68.07,222.18Zm329.41-.34c0-.68-.13-1.19-1-1.15-1.29.06-1,1.16-1.21,1.9-.08.37-.2,1,.61,1A1.52,1.52,0,0,0,397.48,221.84ZM672.63,101.48c-.09,1-.11,1.79-.21,2.53s0,1,.78,1c.48,0,1.27.22,1.21-.57,0-.56.51-1.73-.51-1.66S673.07,102.1,672.63,101.48Zm-274,30.35c.72,0,1.37.07,1.32-.94-.07-1.3-1.38-1.4-2.07-1.7s-.34.84-.42,1.32C397.35,131.38,397.5,132.11,398.66,131.83ZM324,238.16c-.33.61-1.32.61-1.39,1.41a1.31,1.31,0,0,0,1.21,1.47c.83.05.74-1,1.13-1.48S324.66,238.55,324,238.16Zm31.49.22c-.45-.48-.06-1.71-1.31-1.84-.82-.08-1,.59-1.05,1.13a1.62,1.62,0,0,0,1.51,1.65C355.21,239.4,355.61,239.23,355.51,238.38Zm42.18-23.2s-.5.93.35.68c.67-.2,2.09.49,2-1.21,0-.79-.15-1.22-1-1.15S397.22,213.44,397.69,215.18Zm276.15,62c-.12-.53,0-1.32-.91-1.12-.57.13-1.39.15-1.19,1.13.14.67-.07,1.6,1.15,1.54S673.67,277.82,673.84,277.21ZM146.46,362.42c-.94,0-2-.83-2.59.18-.26.46-.11,1.85.74,2C146.34,365,145.7,363.12,146.46,362.42ZM415.38,254.29c-.15-.35.41-1.24-.55-1.23-1.22,0-1.33,1.14-1.57,2s.4.73,1,.77C415.35,255.92,415.46,255.26,415.38,254.29ZM644.47,271c-.16-.66.29-1.73-1.07-1.54-.48.07-1.3-.19-1.09.67s.22,2,1.45,2.11C644.83,272.35,644.22,271.4,644.47,271ZM26.85,199.31c-1-.63-1.41-.16-1.39.84,0,.57,0,1.34.87,1.12.7-.18,1.72-.13,1.69-1.33C28,199,27.57,198.9,26.85,199.31ZM294.27,311.54c0-.85-.06-1.67-1.09-1.7s-1.11.6-1.09,1.41,0,1.3,1,1.17C293.73,312.33,294.48,312.55,294.27,311.54ZM161.57,45.38c-.17-1,.82-2.16-.71-2.69-.42-.14-1.2-.25-1.28.52C159.45,44.54,160.11,45.29,161.57,45.38ZM658,209.3c-.44-.28-.73-.45-1-.64a1.63,1.63,0,0,1-.62-1,.58.58,0,0,0-1-.32,2.85,2.85,0,0,0-.23,2.22c.12.8.87.45,1.3.41A5.25,5.25,0,0,0,658,209.3ZM219.25,30.6c0-1.33-.2-1.65-.92-1.51a1.22,1.22,0,0,0-1.09,1.36,1.15,1.15,0,0,0,1.3,1.13C219.3,31.59,219.45,31.21,219.25,30.6ZM675.64,269.44a3.42,3.42,0,0,0-1,1.78c-.1.6.21,1,.89,1,.89,0,1.09-.62,1.11-1.27S676.62,269.65,675.64,269.44Zm-228-168.22c1.31.61,2-.16,2.44-1.07a1,1,0,0,0-.47-1.51c-.6-.26-1,.1-1.19.68S447.89,100.58,447.63,101.22ZM194.22,10.8c.33.87-.42,2.09.76,2.44a1.11,1.11,0,0,0,1.4-.79C196.64,10.77,194.68,11.73,194.22,10.8ZM323.15,344.34c.55.14,1.35.64,1.26-.66-.07-1-.56-1.54-1.53-1.53s-1,.84-1,1.52C321.82,344.59,322.29,344.8,323.15,344.34ZM114.65,258c-.24-.59-.26-1.22-1-1.28s-1,.61-1,1.15.19,1.48.94,1.45C114.19,259.24,114,258.17,114.65,258Zm451.21-20.68c.3,1-.41,2.26,1.1,2.73.39.12,1,.12,1-.61C568.08,238,567.45,237.33,565.86,237.27ZM249.45,288.45c0-.77.09-1.47-.93-1.45s-1.25.54-1.21,1.38c0,.5-.17,1.26.69,1.08C248.58,289.34,249.74,289.69,249.45,288.45Zm205.15-172c.27.31-.7,1.43.77,1.31.85-.07,1.35-.13,1.3-1.2-.05-.87-.24-1.32-1.19-1.25C454.81,115.37,454.26,115.44,454.6,116.46ZM90.11,138.76c.08.53-.21,1.21.65,1.23s1.13-.58,1.18-1.27.16-1.32-.66-1.39C90.26,137.24,90.47,138.28,90.11,138.76Zm414.39,104c0-.85-.51-.94-1-.91-.91.07-.95,1.24-1.75,1.48.71.18.51,1.55,1.3,1.29S504.25,243.43,504.5,242.76ZM384.13,313.08c-.39-.34.71-1.41-.55-1.32-.62,0-1.75,0-1.55,1.33a1.62,1.62,0,0,0,1.67,1.41C384.71,314.52,384,313.65,384.13,313.08Zm203-201.21c0,.7-.39,1.54.91,1.4.78-.09,1.22,0,1.26-1.1,0-1.3-.69-1.21-1.5-1.35C586.51,110.61,587.24,111.53,587.08,111.87ZM470,139.06c-.61.87-1,1.48-1.46,2.07-.28.38-.71.75-.43,1.24s.84.25,1.28.23c.71,0,.85-.56.83-1.12S470.14,140.09,470,139.06ZM523,330.63c-.93,1.49.75,1,1.08,1,1.2,0,.4-1.07.58-1.64.25-.83-.42-.76-1-.74C522.78,329.3,522.52,329.72,523,330.63ZM448,11.5c-1.2,0-1.1.78-1.08,1.38s-.29,1.5.75,1.44,1.11-1,1.23-1.71A1,1,0,0,0,448,11.5ZM310.68,202.29c.35.29-.39,1.37.65,1.17.86-.17,1.2-1.13,1.4-2s-.52-.66-1-.75C310.33,200.47,310.87,201.56,310.68,202.29ZM110.42,70.75c1.1-.22,2.11.09,2.06-1,0-.51-.39-1.34-1.22-1.26A1.23,1.23,0,0,0,110,69.77C110,70.33,110.19,70.77,110.42,70.75Zm420,70.07a1.42,1.42,0,0,0,1.06-1.24c0-.57-.46-1.07-.8-1-.54.08-1.29.29-1.28,1.12C529.37,140.3,529.83,140.6,530.39,140.82ZM387.79,272c-.1-.37.16-1.1-.52-1-1,.08-1.4.94-1.6,1.8-.05.23.25.55.4.82C386.13,272.46,388.26,273.69,387.79,272Zm-5.37,81c0-.6,0-1.35-.53-1.23a2,2,0,0,0-1.41,1.84c-.07.57.55,1.05.81.93C381.93,354.2,382.63,353.74,382.42,352.94ZM183.48,99.07c0-.67-.39-1.21-.82-1.07a1.38,1.38,0,0,0-1.15,1.46c.07.5.18,1.26.8,1.14S183.06,99.49,183.48,99.07Zm-54.06,185a3.44,3.44,0,0,0-.28,2.18,1,1,0,0,0,1.92.31C131.65,285.28,130.06,285,129.42,284.08Zm-46-197.4c-.51.21-1.48-.05-1.38.87,0,.44,0,1.43,1,1.34s1.14-1,1.37-1.58S83.89,86.83,83.46,86.68Zm148,200.15c-.3-.53-.08-1.59-1.16-1.43-.64.09-1.32.42-1.18,1.29s1.11.71,1.71.9S231.54,287.39,231.43,286.83Zm401.91,50.94c0,.84.11,1.69.83,1.44a2.19,2.19,0,0,0,1.26-1.95c0-.41.06-.9-.57-.83A1.64,1.64,0,0,0,633.34,337.77Zm-258-162.58c-.38-.29-.84-.91-1.32-.92a1.15,1.15,0,0,0-1.11,1.2c.1.51.52,1.22,1.28,1.1C374.78,176.49,375.18,176.05,375.32,175.19ZM106.07,75.47c-.56-.77-.24-2.22-1.59-2.08a1.28,1.28,0,0,0-.86,1.6C104.16,76.36,105.23,75.26,106.07,75.47ZM540.91,240.08a1.92,1.92,0,0,0-.87,1.1c-.28,1-.08,2.27,1.34,1.4C542.57,241.85,541.28,241,540.91,240.08ZM235.8,248.84c-.06-.84-.45-1.74-1-1.51a2.3,2.3,0,0,0-1.12,2c0,.5.16.88.67.7S235.94,249.8,235.8,248.84ZM124.56,148.31c.44.15.61-.3.91-.42a1.61,1.61,0,0,0,1-2c-.06-.42-.38-.44-.67-.37a1.74,1.74,0,0,0-1.44,1.75C124.36,147.65,124.27,148,124.56,148.31ZM54.11,171.52c-.25-.56-.3-1.3-.91-1.27-.78,0-.7,1-1.09,1.5-.16.18.27,1.34.9,1.18C53.48,172.8,53.78,172,54.11,171.52ZM528.61,16.15c0-.85-.05-1.55,0-2.25s-.6-.76-.92-.88c-.47-.18-.31.46-.45.72C526.66,14.94,527.2,15.64,528.61,16.15ZM195,179.42c1.16.25,1.5-.16,1.39-1.09-.06-.53,0-1.3-.67-1.19-.89.16-1.44,1.13-1.69,1.85S194.81,179.34,195,179.42Zm4.27,0c-.05.65-.12,1.27.83,1.17.7-.07,1.27-.15,1.3-1.08s-.39-1.07-1.17-1.1S199.19,178.73,199.3,179.43ZM468.78,169c.13.43-.29,1.25.63,1.14s1.18-.87,1.32-1.66c.18-1-.62-.59-1-.69C468.49,167.51,468.9,168.46,468.78,169ZM152.62,289.79c0-.46.1-1-.67-.91-1.16.11-1,1.16-1.27,1.85s.4.5.74.53C152.54,291.37,152.64,290.62,152.62,289.79Zm468.1-167.62c-.2-.4.51-1.39-.61-1.38-1.51,0-.47,1.51-1.07,2.17-.33.36.21.6.68.66C620.87,123.75,620.76,123,620.72,122.17ZM580.3,356.06c-.24-.4.37-1.34-.63-1.3-1.17,0-.86,1.24-1.17,1.92-.2.45,0,.86.73.87C580.36,357.58,580.23,356.8,580.3,356.06Zm3.07-144c.94.31,1.17,2.11,2.41,1.3a1.38,1.38,0,0,0,.08-1.81C584.94,210.55,584.31,212.26,583.37,212Zm75.38,168.42c0-.69,0-1.47-.77-1.36s-1.23,1-1.39,1.86.53.57,1,.62C658.45,381.68,658.93,381.37,658.75,380.46ZM56.28,319.57c.12.42-.24,1.11.59,1s1.28-.3,1.25-1.18A1.18,1.18,0,0,0,57,318.31C55.93,318.21,56.49,319.14,56.28,319.57Zm53.51-128.23c-.71,0-.27.75-.61.91-1.27.63,0,1.1.1,1.63a.42.42,0,0,0,.71.22,1,1,0,0,0,.15-1.53C109.89,192.23,110.38,191.61,109.79,191.34ZM634.9,364.67c.17-.65,1.55.42,1.36-.84-.06-.37.18-1.43-.8-1.17-.6.16-1.62,0-1.48,1.25C634.05,364.47,634.12,364.83,634.9,364.67ZM373.1,171.06c0-.72.15-1.54-.93-1.57s-.79.65-.82,1.24,0,1.28,1,1.31S373.23,171.68,373.1,171.06ZM319.75,281.83c-.08-.79-.55-1-1.23-.95s-1,.5-1,1.19.32,1,1,1A1.16,1.16,0,0,0,319.75,281.83ZM268,15.2c-.08-.63,0-1.42-.94-1.59-.76-.13-1,.85-1,.94.37.54.43,1.41,1.19,1.56C267.75,16.22,268.11,15.86,268,15.2ZM642.58,122.52c-.13-.5.25-1.6-.76-1.54s-.56,1.28-.88,1.93.4.67.85.72C642.58,123.73,642.69,123.26,642.58,122.52Zm-9.5,62c-.79.18-2-.42-2,1,0,.64.35,1,1,1C633.65,186.57,632.56,185.18,633.08,184.55ZM23,248.85c0-.62-.09-1.37-1-1.25-.7.1-.81.83-.87,1.47-.08.82.64.77,1,.83C22.91,250,23.16,249.56,23,248.85Zm160.59,88.81c-.32-.09-.44-.17-.55-.15-.59.13-1.57-.52-1.65.68,0,.58-.43,1.5.28,1.74,1.06.37.87-1,1.42-1.41C183.31,338.37,183.39,338.05,183.61,337.66Zm235.4-21c0-.58-.31-1.37-.6-1.19a2.23,2.23,0,0,0-1.26,2c0,.49.13.79.73.68A1.32,1.32,0,0,0,419,316.65Zm135.82-20.53c.77-.55,2-.29,1.58-1.6-.15-.49-.32-1.39-1.08-1C554.14,294,555,295.05,554.83,296.12Zm-59-212.36c1.28.32,1.35-.35,1.34-1.05,0-.46,0-1-.71-.88s-1.12.85-1.29,1.48C494.93,84.12,495.73,83.73,495.8,83.76ZM355.61,23.24c.58-.32,1.6-.14,1.4-1.36-.11-.68-.42-.7-.95-.69-1,0-1.23.51-1.19,1.37C354.89,23.08,355.05,23.36,355.61,23.24ZM185,173.31c-.14-.43-.14-1.35-1-1.27s-1,1-1.13,1.61.64.89.89.76C184.2,174.2,185.14,174.47,185,173.31ZM684.13,211.1c.3-.25,1.16.34,1.11-.6a1.3,1.3,0,0,0-1.43-1.27c-.73,0-1.08.37-1.07,1.11C682.74,211.36,683.53,210.94,684.13,211.1ZM453.58,10.74c.22-.82-.25-1.05-.95-1-.43,0-1.13-.19-1,.57a1.74,1.74,0,0,0,1.27,1.47C453.51,11.85,453.63,11.28,453.58,10.74Zm-76.9,221.94a2.44,2.44,0,0,0-1.37-1.5c-.48-.24-.68.6-.73.95a1.13,1.13,0,0,0,1.12,1.42C376.16,233.58,376.7,233.73,376.68,232.68ZM326.89,357c.1-.74-.35-1.06-1.08-1.17s-.68.43-.71.88a1.39,1.39,0,0,0,1.18,1.42C326.69,358.25,327,357.61,326.89,357ZM185.22,192.47c-.1.79-1,1.55-.2,2.32.35.33.8,0,1.06-.34C186.81,193.45,185.82,193.06,185.22,192.47Zm86.07-8.1c-.24.7.34,1.07.89,1.1s1.3-.55,1.1-.89c-.3-.5-.13-1.46-1.14-1.5S271.37,183.73,271.29,184.37ZM57.71,240.24c.12.49-.3,1.29.73,1.25.59,0,1.27-.31,1-.86s.18-1.59-.94-1.64S57.84,239.75,57.71,240.24Zm191.2-56.05c.7,0,1.42.1,1.28-.83-.07-.44.2-1.31-.66-1.16a1.68,1.68,0,0,0-1.49,1.35C247.94,184.3,248.56,184.17,248.91,184.19ZM539,158.2c.37.29-.48,1.33.63,1.2.8-.1.88-1,.84-1.68,0-.48.25-1.17-.68-1.11C538.66,156.68,539.2,157.55,539,158.2Zm-50.2,191.69c-.17-.83.76-1.91-.71-2.31-.34-.1-1-.19-.93.41C487.24,348.87,487.43,349.85,488.79,349.89Zm-316.31-94c.14-.68,0-1.15-.85-1.12-.55,0-1.24,0-1.28.63-.06.79.64,1.26,1.3,1.48C172.5,257.1,172.38,256.34,172.48,255.84ZM638.3,371.69c.08-.74-.34-.92-1-.89s-1.12.33-1.12,1.08.65.68,1.15.72C638,372.65,638.38,372.4,638.3,371.69ZM17,65.59c.79-.31,1.89.62,2.3-.49.22-.63-.44-1.28-1.27-1.33C16.56,63.67,17.44,65,17,65.59ZM391.35,1.81c-.81,0-1.33.2-1.38,1.06,0,.69.4.73.89.76.75,0,1.23-.21,1.26-1.06C392.15,1.92,391.81,1.77,391.35,1.81ZM537.82,172.63c.77-.49,1.8-.76,1.54-1.87a.82.82,0,0,0-1.14-.54C537,170.77,537.87,171.79,537.82,172.63Zm-437.47,4c0-.42-.12-.71-.59-.68a1.09,1.09,0,0,0-1.17,1.22c0,.49.14,1.07.69,1C100.21,178.19,100,177.16,100.35,176.66Zm-2.43,87.58c0-.84-.27-1.28-.94-1.27-.86,0-.79.69-.86,1.28s.17.89.78.9C97.67,265.16,97.93,264.71,97.92,264.24ZM66.67,280.52c-.69-.07-.74.36-.68.89s-.13,1.24.78,1.27c.62,0,1-.21,1-.88A1.13,1.13,0,0,0,66.67,280.52ZM381.76,138.78c-.24-.5.51-1.48-.54-1.54-1.21-.08-.56,1.17-.92,1.76s.13,1.07.78,1.09C382.14,140.13,381.58,139.27,381.76,138.78Zm4.41,238.6c.07.41.44.56.93.61s1.14-.2.9-.64.27-1.46-.78-1.51S386.53,376.71,386.17,377.38Zm-91.88-44.67c0-.55,0-1-.61-.95A1.13,1.13,0,0,0,292.5,333c0,.39-.08.94.56.83A1.37,1.37,0,0,0,294.29,332.71ZM668.6,260.53c-.4.89-1,1.63-.26,2.41a1.41,1.41,0,0,0,1.3-.1C670.14,261.82,669.27,261.3,668.6,260.53ZM100.35,81.08a1.29,1.29,0,0,0-.93-1.41c-.48-.2-1,.52-1.11,1-.26.74.72.83,1,1.36ZM194.2,237.66c-.56-.19.17-1.3-.85-1.21-.77.06-.89.62-.88,1.26,0,.47-.07,1,.69.91C193.73,238.56,194.19,238.42,194.2,237.66Zm-134,131.77c.89.13.94-.37,1-.95s-.23-1-.92-.92-1,.1-1,.87S59.58,369.45,60.15,369.43ZM506,4.27c.16.37-.28,1.15.63,1.1s1-.8,1.11-1.37-.44-.71-.95-.77C506,3.14,506,3.65,506,4.27ZM97.35,160.46c-.46.94-1,1.74-.23,2.5a.86.86,0,0,0,1.25-.26C98.81,161.77,98,161.27,97.35,160.46Zm77.11,156.4c-.77.25-1.39.25-1.31,1.13s.42.94,1,.89.82-.55.78-1.15S174.78,316.89,174.46,316.86Zm31.4-111.1c.44-.1.95-.1.95-.76a1.24,1.24,0,0,0-1.08-1.32c-.46,0-.66.68-.69,1.21A.72.72,0,0,0,205.86,205.76Zm-39.51-73.37c-.14-.27.48-1.24-.46-1.16s-.67,1.21-1,1.86c-.18.4.2.58.62.55C166.22,133.6,166.7,133.41,166.35,132.39Zm390.95,2.06c-.8,1-1,1.87.06,2.67A1.72,1.72,0,0,0,557.3,134.45Zm-388.47,65.3c-1.07.85-.92,1.69,0,2.52C169.87,201.42,169.87,200.58,168.83,199.75ZM5.72,3.3c-.63,1-1.14,1.85.1,2.73C6.88,5.11,6.73,4.24,5.72,3.3ZM283.87,97.13c-.07-.45.06-1-.67-1s-.72.55-.79,1.06.22.86.78.91C284,98.13,283.81,97.55,283.87,97.13ZM518.62,191c.65.08.72-.36.73-.89s-.12-1.21-.9-1.26-.72.72-.76,1.14A.84.84,0,0,0,518.62,191Zm145.92-55.06a9.82,9.82,0,0,0-.91-1.23c-.73-.9-1.58-.41-1.3.74C662.75,137.17,664,134.87,664.54,135.92ZM272.74,328.17c.07-.66,0-1.15-.79-1.06-.44,0-1,.28-.79.62.33.51.2,1.41,1,1.51C273.06,329.35,272.61,328.52,272.74,328.17Zm131.53,9.09c.14-.57-.15-.87-.85-.86s-.89.22-.81.84.17,1,.91,1S404.31,337.91,404.27,337.26ZM53.33,233.6c-.21,0-.7,0-.58.51a2.35,2.35,0,0,0,1.07,1.59c.21.11.75-.26.49-.65S54.63,233.55,53.33,233.6Zm146.32-5.9c-.59-.17,0-1.33-.87-1.19a1.15,1.15,0,0,0-.88,1.15c0,.71.49.71,1,.68S199.75,228.43,199.65,227.7Zm239,154.72c.16.4-.3,1.18.56,1.17.37,0,1-.13.92-.81a1.45,1.45,0,0,0-1.09-1.15C438.54,381.51,438.63,382.06,438.64,382.42Z"/><path class="cls-1" d="M688,173.1c0-.65.11-1.3.11-1.95q0-84.36,0-168.71c0-1.75-.43-2.12-2.13-2.09-7.64.13-15.28.11-22.92.14a2,2,0,0,0-1.37-.06H599.56q-28,0-56.08,0H46.31c-.72,0-1.43,0-2.15,0H42.05L26.48.45H24.93L0,.39C.12.28-.14,0,.22,0s1,0,1.44,0Q344.2,0,686.75,0c1.4,0,1.77.21,1.77,1.71q-.06,192-.06,384c0,.53.41,1.22-.34,1.62V178.08c0-.71,0-1.43-.07-2.14C688,175,688,174.05,688,173.1Z"/><path class="cls-2" d="M661.75.43a2,2,0,0,1,1.37.06c.2.37,0,1.05.75,1s1,.45,1,1.11a1.53,1.53,0,0,1-1,1.51c-.58.14-.87-.6-1.22-1.08C662.06,2.24,661.36,1.54,661.75.43Z"/><path class="cls-3" d="M367.81,212.32a5.16,5.16,0,0,1-2.59,0c.58-.75.31-1.6.47-2.4a1.15,1.15,0,0,1,1.56-1c.92.2.4.76.23,1.23A2.73,2.73,0,0,0,367.81,212.32Z"/><path class="cls-4" d="M432.67,254.55c-.39.56.46,1.65-.76,1.75-.9.08-1.38-.48-1.16-1.45.17-.77-.3-2,1.16-1.92S432.29,254,432.67,254.55Z"/><path class="cls-4" d="M486.67,113.94c.13-.79-.35-1.8,1.18-1.85.74,0,1,.56.94.69-.42.92-.52,2.28-1.63,2.49C486.26,115.44,486.94,114.37,486.67,113.94Z"/><path class="cls-5" d="M42.05.43h2.11a6.37,6.37,0,0,1,.22,1.19c0,.51.38,1.15-.13,1.49a2.16,2.16,0,0,1-1.89.08c-.74-.28-.3-1-.29-1.54S42.06.84,42.05.43Z"/><path class="cls-6" d="M39.53,13.36c-.23-.9.75-2.51,1.58-2.59a.53.53,0,0,1,.33.08c.31.22.21,2.51-.11,2.91C40.73,13.64,40.59,11.48,39.53,13.36Z"/><path class="cls-7" d="M105,62.64c.39-.54.14-1.88,1.48-1.47.42.13,1.48-.7,1.34.63a2,2,0,0,1-2.06,2C104.9,63.84,105.05,63.26,105,62.64Z"/><path class="cls-8" d="M37.15,310.28c-.86.1-1.66.29-1.6-1,0-.87.33-1.35,1.27-1.14.7.15,1.75-.32,1.64,1.18C38.38,310.47,37.94,310.59,37.15,310.28Z"/><path class="cls-9" d="M281.06,240.35c-.13.63.26,1.6-1,1.44-.57-.07-1.54.18-1.37-.87.15-.85.44-1.83,1.55-1.94S280.86,239.85,281.06,240.35Z"/><path class="cls-4" d="M322,356.48c-.13-.38-.09-.75.56-.52s1.8-.18,1.77,1.16c0,.65-.12,1.1-.95,1.11C322.22,358.24,322.19,357.42,322,356.48Z"/><path class="cls-3" d="M389.17,276.26c.83,1.95-1.76,1-1.8,2.2-.28-.16-.34-.34-.33-.7,0-1.27.13-2.66,1.61-2.9C389.69,274.68,389,275.79,389.17,276.26Z"/><path class="cls-10" d="M204.48,194.86c-1.12.15-1.77-.09-1.61-1.17.06-.4-.26-1,.73-1a1.9,1.9,0,0,1,2.14,1.56C205.87,195.12,204.8,194.72,204.48,194.86Z"/><path class="cls-3" d="M603.23,17.57c-1-1.83.66-.74.87-.78,1.4-.26.65,1,.84,1.49.28.76-.42.8-1,.77C602.8,19,602.39,18.54,603.23,17.57Z"/><path class="cls-11" d="M12.93,190.44c-.54.68.09,2.22-1.14,2.48-.64.14-.95-1.15-1.52-1.71a15.58,15.58,0,0,1,2-1.59C12.71,189.35,13,189.79,12.93,190.44Z"/><path class="cls-10" d="M307.9,211c0-.7-.37-1.54.88-1.48.79.05,1.45.1,1.19,1.16-.17.69.53,1.72-1.12,1.74S308.1,211.53,307.9,211Z"/><path class="cls-12" d="M512.86,111.26c-.13.37.46,1.25-.56,1.24s-1.5-.67-1.49-1.74c0-.73.23-1.08,1-1.13C513,109.55,512.88,110.39,512.86,111.26Z"/><path class="cls-13" d="M124.21,109.9c.57.21,1.29.2,1.56.75s-.18.82-.73.87c-.08,0-.2.16-.21.25-.12.77-.45,1.34-1.31,1.4-.38,0-.47-.24-.52-.56-.2-1.07,1-1.65.93-2.69Z"/><path class="cls-7" d="M635.48,322.14c.11-.58.06-1.66.86-1.35.55.22,1.6.66,1.62,1.67,0,.79-.62,1-1.23,1C635.78,323.6,635.47,323,635.48,322.14Z"/><path class="cls-10" d="M315.83,115.85c-.56-1.16.14-1.43,1-1.53s.82.69.76,1.2.38,1.65-1,1.58C315.57,117.06,315.33,116.66,315.83,115.85Z"/><path class="cls-14" d="M469.5,377.35c-.18.39.13,1.46-.41,1.18-.75-.39-2-.59-2.07-1.82s.89-.79,1.48-.88C469.87,375.61,469.47,376.62,469.5,377.35Z"/><path class="cls-11" d="M107.21,104.28c-.11.7.08,1.69-.95,1.78-1.22.11-1.1-1-1.22-1.74s.1-1.17,1-1.12S107.36,103.34,107.21,104.28Z"/><path class="cls-8" d="M447.65,114.24c.18,1-.12,1.33-.93,1.15-.5-.1-1.61.08-1.06-.75.42-.63-1-2.09,1-2C448.21,112.72,447.32,113.87,447.65,114.24Z"/><path class="cls-12" d="M405.28,187.4c0-.64.39-1.23.09-1.88-.22-.45-.82-1.17.28-1.28.48-.05,1.34-.51,1.46.37.09.69.64,1.75-.47,2.07C406.1,186.83,405.88,187.38,405.28,187.4Z"/><path class="cls-13" d="M572.08,203.28c.17-.73-.17-1.81,1-1.89.84,0,1,.78,1,1.38,0,.76-.17,1.51-1.24,1.48C572.24,204.23,571.91,204,572.08,203.28Z"/><path class="cls-5" d="M24.47,52.44c.94,1.15,2.05-1.57,2.78.08.35.79-.41,1.66-1.06,1.87C24.61,54.91,25.31,53,24.47,52.44Z"/><path class="cls-14" d="M424.52,367.51c1.17.1,1.57.69,1.53,1.56a1.24,1.24,0,0,1-1.31,1.37c-.62,0-1.14-.33-.88-1S423.45,367.72,424.52,367.51Z"/><path class="cls-2" d="M363.4,338.83c1,.34,1.88-1.52,2.81-.11a1,1,0,0,1-.4,1.53C364.48,340.79,364,339.64,363.4,338.83Z"/><path class="cls-5" d="M54.76,42a2.11,2.11,0,0,1-1.24-1.67c0-.61,0-1.58.93-1.88a.66.66,0,0,1,.56.31c.17.94.29,1.89.37,2.84C55.39,41.7,55,41.84,54.76,42Z"/><path class="cls-12" d="M68.07,222.18c-.13.42.29,1.38-.77,1.31s-1.36-.71-1.36-1.72.37-1,1.17-1.08C68.28,220.64,68.2,221.29,68.07,222.18Z"/><path class="cls-8" d="M397.48,221.84a1.52,1.52,0,0,1-1.55,1.72c-.81.06-.69-.6-.61-1,.18-.74-.08-1.84,1.21-1.9C397.35,220.65,397.51,221.16,397.48,221.84Z"/><path class="cls-12" d="M672.63,101.48c.44.62.2,1.39,1.27,1.31s.46,1.1.51,1.66c.06.79-.73.53-1.21.57-.76,0-.87-.38-.78-1S672.54,102.52,672.63,101.48Z"/><path class="cls-10" d="M398.66,131.83c-1.16.28-1.31-.45-1.17-1.32.08-.48-.31-1.64.42-1.32s2,.4,2.07,1.7C400,131.9,399.38,131.87,398.66,131.83Z"/><path class="cls-8" d="M324,238.16c.64.39,1.32.93,1,1.4s-.3,1.53-1.13,1.48a1.31,1.31,0,0,1-1.21-1.47C322.7,238.77,323.69,238.77,324,238.16Z"/><path class="cls-12" d="M355.51,238.38c.1.85-.3,1-.85.94a1.62,1.62,0,0,1-1.51-1.65c0-.54.23-1.21,1.05-1.13C355.45,236.67,355.06,237.9,355.51,238.38Z"/><path class="cls-14" d="M511.2,267c-.81-.58-2.3-.8-1.27-2.35a1.18,1.18,0,0,1,1.5-.6c.86.32.29.9.17,1.31a4.65,4.65,0,0,0-.21,1.57A.16.16,0,0,0,511.2,267Z"/><path class="cls-12" d="M397.69,215.18c-.47-1.74.46-1.61,1.29-1.68s1,.36,1,1.15c.1,1.7-1.32,1-2,1.21C397.19,216.11,397.68,215.17,397.69,215.18Z"/><path class="cls-9" d="M673.84,277.21c-.17.61.18,1.49-1,1.55s-1-.87-1.15-1.54c-.2-1,.62-1,1.19-1.13C673.89,275.89,673.72,276.68,673.84,277.21Z"/><path class="cls-6" d="M146.46,362.42c-.76.7-.12,2.6-1.85,2.22-.85-.19-1-1.58-.74-2C144.44,361.59,145.52,362.45,146.46,362.42Z"/><path class="cls-8" d="M415.38,254.29c.08,1,0,1.63-1.16,1.54-.56,0-1.18,0-1-.77s.35-2,1.57-2C415.79,253.05,415.23,253.94,415.38,254.29Z"/><path class="cls-2" d="M644.47,271c-.25.41.36,1.36-.71,1.24-1.23-.13-1.24-1.28-1.45-2.11s.61-.6,1.09-.67C644.76,269.26,644.31,270.33,644.47,271Z"/><path class="cls-2" d="M26.85,199.31c.72-.41,1.16-.3,1.17.63,0,1.2-1,1.15-1.69,1.33-.89.22-.86-.55-.87-1.12C25.44,199.15,25.81,198.68,26.85,199.31Z"/><path class="cls-12" d="M294.27,311.54c.21,1-.54.79-1.19.88-1,.13-1-.47-1-1.17s.17-1.44,1.09-1.41S294.26,310.69,294.27,311.54Z"/><path class="cls-8" d="M161.57,45.38c-1.46-.09-2.12-.84-2-2.17.08-.77.86-.66,1.28-.52C162.39,43.22,161.4,44.43,161.57,45.38Z"/><path class="cls-6" d="M658,209.3a5.25,5.25,0,0,1-1.51.64c-.43,0-1.18.39-1.3-.41a2.85,2.85,0,0,1,.23-2.22.58.58,0,0,1,1,.32,1.63,1.63,0,0,0,.62,1C657.25,208.85,657.54,209,658,209.3Z"/><path class="cls-8" d="M219.25,30.6c.2.61.05,1-.71,1a1.15,1.15,0,0,1-1.3-1.13,1.22,1.22,0,0,1,1.09-1.36C219.05,29,219.23,29.27,219.25,30.6Z"/><path class="cls-7" d="M675.64,269.44c1,.21,1,.93,1,1.54s-.22,1.31-1.11,1.27c-.68,0-1-.43-.89-1A3.42,3.42,0,0,1,675.64,269.44Z"/><path class="cls-9" d="M447.63,101.22c.26-.64.54-1.26.78-1.9s.59-.94,1.19-.68a1,1,0,0,1,.47,1.51C449.6,101.06,448.94,101.83,447.63,101.22Z"/><path class="cls-15" d="M194.22,10.8c.46.93,2.42,0,2.16,1.65a1.11,1.11,0,0,1-1.4.79C193.8,12.89,194.55,11.67,194.22,10.8Z"/><path class="cls-13" d="M323.15,344.34c-.86.46-1.33.25-1.29-.67,0-.68,0-1.51,1-1.52s1.46.54,1.53,1.53C324.5,345,323.7,344.48,323.15,344.34Z"/><path class="cls-10" d="M114.65,258c-.64.22-.46,1.29-1.06,1.32-.75,0-1-.83-.94-1.45s.22-1.23,1-1.15S114.41,257.36,114.65,258Z"/><path class="cls-13" d="M565.86,237.27c1.59.06,2.22.76,2.12,2.12-.05.73-.63.73-1,.61C565.45,239.53,566.16,238.26,565.86,237.27Z"/><path class="cls-7" d="M249.45,288.45c.29,1.24-.87.89-1.45,1-.86.18-.67-.58-.69-1.08,0-.84.28-1.36,1.21-1.38S249.45,287.68,249.45,288.45Z"/><path class="cls-11" d="M454.6,116.46c-.34-1,.21-1.09.88-1.14.95-.07,1.14.38,1.19,1.25.05,1.07-.45,1.13-1.3,1.2C453.9,117.89,454.87,116.77,454.6,116.46Z"/><path class="cls-13" d="M90.11,138.76c.36-.48.15-1.52,1.17-1.43.82.07.71.84.66,1.39S91.59,140,90.76,140,90.19,139.29,90.11,138.76Z"/><path class="cls-10" d="M504.5,242.76c-.25.67-.63,1.6-1.42,1.86s-.59-1.11-1.3-1.29c.8-.24.84-1.41,1.75-1.48C504,241.82,504.51,241.91,504.5,242.76Z"/><path class="cls-3" d="M384.13,313.08c-.09.57.58,1.44-.43,1.42a1.62,1.62,0,0,1-1.67-1.41c-.2-1.32.93-1.29,1.55-1.33C384.84,311.67,383.74,312.74,384.13,313.08Z"/><path class="cls-10" d="M587.08,111.87c.16-.34-.57-1.26.67-1.05.81.14,1.55.05,1.5,1.35,0,1.07-.48,1-1.26,1.1C586.69,113.41,587.09,112.57,587.08,111.87Z"/><path class="cls-10" d="M470,139.06c.1,1,.19,1.72.22,2.42s-.12,1.09-.83,1.12c-.44,0-1,.26-1.28-.23s.15-.86.43-1.24C469,140.54,469.43,139.93,470,139.06Z"/><path class="cls-11" d="M523,330.63c-.46-.91-.2-1.33.7-1.36.54,0,1.21-.09,1,.74-.18.57.62,1.6-.58,1.64C523.73,331.66,522.05,332.12,523,330.63Z"/><path class="cls-11" d="M448,11.5a1,1,0,0,1,.9,1.11c-.12.67-.28,1.66-1.23,1.71s-.73-.88-.75-1.44S446.84,11.5,448,11.5Z"/><path class="cls-3" d="M310.68,202.29c.19-.73-.35-1.82,1.07-1.56.46.09,1.2-.17,1,.75s-.54,1.81-1.4,2C310.29,203.66,311,202.58,310.68,202.29Z"/><path class="cls-2" d="M110.42,70.75c-.23,0-.4-.42-.38-1a1.23,1.23,0,0,1,1.22-1.23c.83-.08,1.19.75,1.22,1.26C112.53,70.84,111.52,70.53,110.42,70.75Z"/><path class="cls-7" d="M527.5,63.48c.9.19,1,1,1,1.64.05.47-.48.56-.78.46-.77-.26-2,.71-2.31-.77C526.24,64.52,526.54,63.51,527.5,63.48Z"/><path class="cls-8" d="M530.39,140.82c-.56-.22-1-.52-1-1.14,0-.83.74-1,1.28-1.12.34-.05.85.45.8,1A1.42,1.42,0,0,1,530.39,140.82Z"/><path class="cls-13" d="M103.92,214c-.84.19-1.83.85-2.4-.28-.91-1.8-.67-2,1.7-1.94C103,212.64,102.66,213.57,103.92,214Z"/><path class="cls-2" d="M387.79,272c.47,1.72-1.66.49-1.72,1.58-.15-.27-.45-.59-.4-.82.2-.86.61-1.72,1.6-1.8C388,270.87,387.69,271.6,387.79,272Z"/><path class="cls-11" d="M382.42,352.94c.21.8-.49,1.26-1.13,1.54-.26.12-.88-.36-.81-.93a2,2,0,0,1,1.41-1.84C382.46,351.59,382.39,352.34,382.42,352.94Z"/><path class="cls-10" d="M327.47,16.6c2.38-.28.91,1.49,1.14,2.28.33,1.09-.62.84-1.23.84-1.43,0-.28-.9-.45-1.34C327.62,17.94,327.54,17.27,327.47,16.6Z"/><path class="cls-11" d="M183.48,99.07c-.42.42-.43,1.38-1.17,1.53s-.73-.64-.8-1.14A1.38,1.38,0,0,1,182.66,98C183.09,97.86,183.43,98.4,183.48,99.07Z"/><path class="cls-10" d="M129.42,284.08c.64.95,2.23,1.2,1.64,2.49a1,1,0,0,1-1.92-.31A3.44,3.44,0,0,1,129.42,284.08Z"/><path class="cls-13" d="M83.46,86.68c.43.15,1.26,0,1,.63s-.46,1.51-1.37,1.58-1-.9-1-1.34C82,86.63,83,86.89,83.46,86.68Z"/><path class="cls-7" d="M231.43,286.83c.11.56-.11.93-.63.76s-1.55.09-1.71-.9.54-1.2,1.18-1.29C231.35,285.24,231.13,286.3,231.43,286.83Z"/><path class="cls-10" d="M191,297.77a.8.8,0,0,1,1-.72c.62.09.47.64.4,1-.21.94.84,2.63-1.37,2.46C190.71,299.59,191.68,298.67,191,297.77Z"/><path class="cls-8" d="M633.34,337.77a1.64,1.64,0,0,1,1.52-1.34c.63-.07.61.42.57.83a2.19,2.19,0,0,1-1.26,1.95C633.45,339.46,633.36,338.61,633.34,337.77Z"/><path class="cls-8" d="M375.32,175.19c-.14.86-.54,1.3-1.15,1.38-.76.12-1.18-.59-1.28-1.1a1.15,1.15,0,0,1,1.11-1.2C374.48,174.28,374.94,174.9,375.32,175.19Z"/><path class="cls-5" d="M106.07,75.47c-.84-.21-1.91.89-2.45-.48a1.28,1.28,0,0,1,.86-1.6C105.83,73.25,105.51,74.7,106.07,75.47Z"/><path class="cls-15" d="M24.93.46h1.55c-.39,1,1.07,1.56.57,2.62C25.76,2.65,24.65,2.13,24.93.46Z"/><path class="cls-12" d="M540.91,240.08c.37.87,1.66,1.77.47,2.5-1.42.87-1.62-.37-1.34-1.4A1.92,1.92,0,0,1,540.91,240.08Z"/><path class="cls-13" d="M235.8,248.84c.14,1-.8,1-1.45,1.24s-.68-.2-.67-.7a2.3,2.3,0,0,1,1.12-2C235.35,247.1,235.74,248,235.8,248.84Z"/><path class="cls-3" d="M124.56,148.31c-.29-.29-.2-.66-.18-1a1.74,1.74,0,0,1,1.44-1.75c.29-.07.61-.05.67.37a1.61,1.61,0,0,1-1,2C125.17,148,125,148.46,124.56,148.31Z"/><path class="cls-8" d="M54.11,171.52c-.33.46-.63,1.28-1.1,1.41-.63.16-1.06-1-.9-1.18.39-.49.31-1.47,1.09-1.5C53.81,170.22,53.86,171,54.11,171.52Z"/><path class="cls-9" d="M243.69,246.43c0-.57-.75-1.3.11-1.63.47-.18,1.5-.51,1.66.22s.67,1.74-.56,2.18C244.61,246.76,244.35,246.28,243.69,246.43Z"/><path class="cls-2" d="M62.4,342.79c-1.09.29-1.31-.25-1.48-1.24-.26-1.46.71-1.32,1.54-1.47l.64-.07h0v1.06h0C61.36,341,62.86,342.31,62.4,342.79Z"/><path class="cls-2" d="M528.61,16.15c-1.41-.51-2-1.21-1.36-2.41.14-.26,0-.9.45-.72.32.12,1,.18.92.88S528.61,15.3,528.61,16.15Z"/><path class="cls-6" d="M195,179.42c-.22-.08-1.21.28-1-.43s.8-1.69,1.69-1.85c.63-.11.61.66.67,1.19C196.53,179.26,196.19,179.67,195,179.42Z"/><path class="cls-3" d="M199.3,179.43c-.11-.7.14-1,1-1s1.2.19,1.17,1.1-.6,1-1.3,1.08C199.18,180.7,199.25,180.08,199.3,179.43Z"/><path class="cls-13" d="M468.78,169c.12-.55-.29-1.5.91-1.21.42.1,1.22-.32,1,.69-.14.79-.43,1.56-1.32,1.66S468.91,169.44,468.78,169Z"/><path class="cls-13" d="M152.62,289.79c0,.83-.08,1.58-1.2,1.47-.34,0-1,.17-.74-.53s.11-1.74,1.27-1.85C152.72,288.81,152.62,289.33,152.62,289.79Z"/><path class="cls-3" d="M620.72,122.17c0,.82.15,1.58-1,1.45-.47-.06-1-.3-.68-.66.6-.66-.44-2.15,1.07-2.17C621.23,120.78,620.52,121.77,620.72,122.17Z"/><path class="cls-13" d="M580.3,356.06c-.07.74.06,1.52-1.07,1.49-.7,0-.93-.42-.73-.87.31-.68,0-1.88,1.17-1.92C580.67,354.72,580.06,355.66,580.3,356.06Z"/><path class="cls-7" d="M583.37,212c.94.22,1.57-1.49,2.49-.51a1.38,1.38,0,0,1-.08,1.81C584.54,214.15,584.31,212.35,583.37,212Z"/><path class="cls-13" d="M511.2,267a.16.16,0,0,1,.19-.07c.48.28,1-.78,1.37,0,.24.48.39,1.3-.06,1.67a1.68,1.68,0,0,1-1.6.21C510.55,268.35,510.92,267.62,511.2,267Z"/><path class="cls-8" d="M658.75,380.46c.18.91-.3,1.22-1.19,1.12-.44-.05-1.12.14-1-.62s.5-1.73,1.39-1.86S658.8,379.77,658.75,380.46Z"/><path class="cls-13" d="M56.28,319.57c.21-.43-.35-1.36.67-1.26a1.18,1.18,0,0,1,1.17,1.12c0,.88-.57,1.13-1.25,1.18S56.4,320,56.28,319.57Z"/><path class="cls-4" d="M109.79,191.34c.59.27.1.89.35,1.23a1,1,0,0,1-.15,1.53.42.42,0,0,1-.71-.22c-.07-.53-1.37-1-.1-1.63C109.52,192.09,109.08,191.34,109.79,191.34Z"/><path class="cls-15" d="M634.9,364.67c-.78.16-.85-.2-.92-.76-.14-1.21.88-1.09,1.48-1.25,1-.26.74.8.8,1.17C636.45,365.09,635.07,364,634.9,364.67Z"/><path class="cls-3" d="M373.1,171.06c.13.62,0,1-.78,1s-1-.6-1-1.31-.11-1.28.82-1.24S373.09,170.34,373.1,171.06Z"/><path class="cls-6" d="M319.75,281.83a1.16,1.16,0,0,1-1.23,1.2c-.66,0-.95-.32-1-1s.21-1.14,1-1.19S319.67,281,319.75,281.83Z"/><path class="cls-2" d="M268,15.2c.14.66-.22,1-.74.91-.76-.15-.82-1-1.19-1.56-.05-.09.23-1.07,1-.94C268,13.78,267.89,14.57,268,15.2Z"/><path class="cls-10" d="M642.58,122.52c.11.74,0,1.21-.79,1.11-.45,0-1.18,0-.85-.72s-.07-1.87.88-1.93S642.45,122,642.58,122.52Z"/><path class="cls-9" d="M633.08,184.55c-.52.63.57,2-1,2-.63,0-1-.36-1-1C631.08,184.13,632.29,184.73,633.08,184.55Z"/><path class="cls-2" d="M374.6,306c1.12-.16,1.82.13,1.76,1.45-.05,1.08-.67,1-1.42.81C374.93,307.49,374.39,306.8,374.6,306Z"/><path class="cls-5" d="M23,248.85c.14.71-.11,1.16-.78,1.05-.41-.06-1.13,0-1-.83.06-.64.17-1.37.87-1.47C22.93,247.48,23,248.23,23,248.85Z"/><path class="cls-5" d="M183.61,337.66c-.22.39-.3.71-.5.86-.55.42-.36,1.78-1.42,1.41-.71-.24-.33-1.16-.28-1.74.08-1.2,1.06-.55,1.65-.68C183.17,337.49,183.29,337.57,183.61,337.66Z"/><path class="cls-13" d="M419,316.65a1.32,1.32,0,0,1-1.13,1.47c-.6.11-.71-.19-.73-.68a2.23,2.23,0,0,1,1.26-2C418.7,315.28,419,316.07,419,316.65Z"/><path class="cls-3" d="M17.22,78.42c-.55,0-1.25.36-1.38-.56-.1-.7-.29-1.67.19-2,.66-.52,1.16.07,1.21.87C17.24,77.26,17.23,77.84,17.22,78.42Z"/><path class="cls-5" d="M554.83,296.12c.18-1.07-.69-2.12.5-2.65.76-.34.93.56,1.08,1C556.8,295.83,555.6,295.57,554.83,296.12Z"/><path class="cls-8" d="M495.8,83.76c-.07,0-.87.36-.66-.45.17-.63.4-1.38,1.29-1.48s.7.42.71.88C497.15,83.41,497.08,84.08,495.8,83.76Z"/><path class="cls-9" d="M441.9,210.17c-.25.27-.59.55-.82.08a2.6,2.6,0,0,1-.16-2.06c.31-.84.87.33,1.31-.05C442.73,208.91,442.9,209.64,441.9,210.17Z"/><path class="cls-6" d="M355.61,23.24c-.56.12-.72-.16-.74-.68,0-.86.23-1.36,1.19-1.37.53,0,.84,0,.95.69C357.21,23.1,356.19,22.92,355.61,23.24Z"/><path class="cls-3" d="M420.45,210.35c.51-.33,1.13-1.27,1.57-.6s.18,1.68.11,2.54c0,.35-.5.19-.77.15-.93-.14-.43-.94-.63-1.42C420.64,210.79,420.54,210.57,420.45,210.35Z"/><path class="cls-2" d="M185,173.31c.18,1.16-.76.89-1.19,1.1-.25.13-1.05-.21-.89-.76s.42-1.54,1.13-1.61S184.82,172.88,185,173.31Z"/><path class="cls-10" d="M684.13,211.1c-.6-.16-1.39.26-1.39-.76,0-.74.34-1.12,1.07-1.11a1.3,1.3,0,0,1,1.43,1.27C685.29,211.44,684.43,210.85,684.13,211.1Z"/><path class="cls-10" d="M453.58,10.74c.05.54-.07,1.11-.67,1a1.74,1.74,0,0,1-1.27-1.47c-.14-.76.56-.56,1-.57C453.33,9.69,453.8,9.92,453.58,10.74Z"/><path class="cls-13" d="M376.68,232.68c0,1-.52.9-1,.87a1.13,1.13,0,0,1-1.12-1.42c.05-.35.25-1.19.73-.95A2.44,2.44,0,0,1,376.68,232.68Z"/><path class="cls-11" d="M420.45,210.35c.09.22.19.44.28.67a2.22,2.22,0,0,1-2.18,1.35c.11-.79-.15-1.64.38-2.36A2.27,2.27,0,0,1,420.45,210.35Z"/><path class="cls-10" d="M326.89,357c.06.6-.2,1.24-.61,1.13a1.39,1.39,0,0,1-1.18-1.42c0-.45-.05-1,.71-.88S327,356.27,326.89,357Z"/><path class="cls-12" d="M185.22,192.47c.6.59,1.59,1,.86,2-.26.35-.71.67-1.06.34C184.24,194,185.12,193.26,185.22,192.47Z"/><path class="cls-13" d="M405.06,14.41c-.3-1.4.69-1.91,1.74-2.51.1.53.18,1,.27,1.41C406.36,13.62,406.13,14.78,405.06,14.41Z"/><path class="cls-9" d="M271.29,184.37c.08-.64-.15-1.34.85-1.29s.84,1,1.14,1.5c.2.34-.62.92-1.1.89S271.05,185.07,271.29,184.37Z"/><path class="cls-10" d="M57.71,240.24c.13-.49-.27-1.29.76-1.25s.65,1.1.94,1.64-.38.84-1,.86C57.41,241.53,57.83,240.73,57.71,240.24Z"/><path class="cls-7" d="M248.91,184.19c-.35,0-1,.11-.87-.64a1.68,1.68,0,0,1,1.49-1.35c.86-.15.59.72.66,1.16C250.33,184.29,249.61,184.2,248.91,184.19Z"/><path class="cls-9" d="M539,158.2c.21-.65-.33-1.52.79-1.59.93-.06.66.63.68,1.11,0,.71,0,1.58-.84,1.68C538.51,159.53,539.36,158.49,539,158.2Z"/><path class="cls-15" d="M488.79,349.89c-1.36,0-1.55-1-1.64-1.9-.06-.6.59-.51.93-.41C489.55,348,488.62,349.06,488.79,349.89Z"/><path class="cls-6" d="M172.48,255.84c-.1.5,0,1.26-.83,1-.66-.22-1.36-.69-1.3-1.48,0-.63.73-.61,1.28-.63C172.5,254.69,172.62,255.16,172.48,255.84Z"/><path class="cls-7" d="M638.3,371.69c.08.71-.29,1-.95.91-.5,0-1.14.11-1.15-.72s.42-1,1.12-1.08S638.38,371,638.3,371.69Z"/><path class="cls-6" d="M17,65.59c.44-.62-.44-1.92,1-1.82.83,0,1.49.7,1.27,1.33C18.89,66.21,17.79,65.28,17,65.59Z"/><path class="cls-10" d="M391.35,1.81c.46,0,.8.11.77.76,0,.85-.51,1.1-1.26,1.06-.49,0-.93-.07-.89-.76C390,2,390.54,1.8,391.35,1.81Z"/><path class="cls-13" d="M1.42,134c0-.71-.16-1.49.93-1.42,1.42.08.76,1.12.82,1.83C2.58,134.3,1.86,134.72,1.42,134Z"/><path class="cls-9" d="M537.82,172.63c0-.84-.86-1.86.4-2.41a.82.82,0,0,1,1.14.54C539.62,171.87,538.59,172.14,537.82,172.63Z"/><path class="cls-7" d="M100.35,176.66c-.4.5-.14,1.53-1.07,1.58-.55,0-.67-.55-.69-1A1.09,1.09,0,0,1,99.76,176C100.23,176,100.35,176.24,100.35,176.66Z"/><path class="cls-13" d="M349.84,63.66c-.93.05-2,.31-1.84-1.25.06-.78-.3-1.78,1.13-1.47,0,.34.05.69.08,1C348.79,62.77,349.67,63.08,349.84,63.66Z"/><path class="cls-14" d="M97.92,264.24c0,.47-.25.92-1,.91-.61,0-.84-.32-.78-.9s0-1.27.86-1.28C97.65,263,97.9,263.4,97.92,264.24Z"/><path class="cls-8" d="M323.62,197.83a3.49,3.49,0,0,1,.71-.07c.49.06,1.14-.17,1.35.54s-.59.89-1,1.28h-1Z"/><path class="cls-7" d="M66.67,280.52a1.13,1.13,0,0,1,1.14,1.28c0,.67-.42.91-1,.88-.91,0-.72-.72-.78-1.27S66,280.45,66.67,280.52Z"/><path class="cls-2" d="M490.87,241.15c-.2-.79.19-1.06.92-1.11,1.29-.08.27,1.25,1,1.52-.27.37-.65.27-1,.24Z"/><path class="cls-7" d="M491.73,241.8c.37,0,.75.13,1-.24.85-.09.76.51.73,1s-.17.89-.79,1-1,.27-1-.52Z"/><path class="cls-13" d="M381.76,138.78c-.18.49.38,1.35-.68,1.31-.65,0-1.06-.64-.78-1.09s-.29-1.84.92-1.76C382.27,137.3,381.52,138.28,381.76,138.78Z"/><path class="cls-7" d="M177.51,264.12c.24-.71-.62-1.73.45-2.14.71-.27,1.54-.13,1.63,1C178.61,262.82,178.66,264.54,177.51,264.12Z"/><path class="cls-6" d="M386.17,377.38c.36-.67,0-1.6,1.05-1.54s.52,1,.78,1.51-.38.69-.9.64S386.24,377.79,386.17,377.38Z"/><path class="cls-15" d="M294.29,332.71a1.37,1.37,0,0,1-1.23,1.14c-.64.11-.56-.44-.56-.83a1.13,1.13,0,0,1,1.18-1.26C294.33,331.71,294.28,332.16,294.29,332.71Z"/><path class="cls-10" d="M668.6,260.53c.67.77,1.54,1.29,1,2.31a1.41,1.41,0,0,1-1.3.1C667.58,262.16,668.2,261.42,668.6,260.53Z"/><path class="cls-11" d="M256,293.44c0,.29-.06.58-.1.87-.13.88-.73,1-1.43.84-1.08-.21-.38-.85-.29-1.33A2.12,2.12,0,0,1,256,293.44Z"/><path class="cls-4" d="M100.35,81.08,99.27,82c-.24-.53-1.22-.62-1-1.36.16-.45.63-1.17,1.11-1A1.29,1.29,0,0,1,100.35,81.08Z"/><path class="cls-8" d="M194.2,237.66c0,.76-.47.9-1,1-.76.07-.68-.44-.69-.91,0-.64.11-1.2.88-1.26C194.37,236.36,193.64,237.47,194.2,237.66Z"/><path class="cls-6" d="M60.15,369.43c-.57,0-1-.19-1-1s.44-.83,1-.87,1,.25.92.92S61,369.56,60.15,369.43Z"/><path class="cls-13" d="M506,4.27c0-.62,0-1.13.79-1,.51.06,1.06.25.95.77s-.3,1.33-1.11,1.37S506.2,4.64,506,4.27Z"/><path class="cls-8" d="M97.35,160.46c.67.81,1.46,1.31,1,2.24a.86.86,0,0,1-1.25.26C96.34,162.2,96.89,161.4,97.35,160.46Z"/><path class="cls-8" d="M349.84,63.66c-.17-.58-1-.89-.63-1.69l1.88.12C351.19,63,351.38,64,349.84,63.66Z"/><path class="cls-4" d="M177.51,264.12c1.15.42,1.1-1.3,2.08-1.18.48.59.66,1.54,0,1.72S177.87,265.51,177.51,264.12Z"/><path class="cls-4" d="M174.46,316.86c.32,0,.45.37.48.87s-.12,1.08-.78,1.15-.94-.16-1-.89S173.69,317.11,174.46,316.86Z"/><path class="cls-6" d="M374.6,306c-.21.8.33,1.49.34,2.26-.63.21-1.46.74-1.46-.51C373.47,307.05,372.74,305.61,374.6,306Z"/><path class="cls-7" d="M205.86,205.76a.72.72,0,0,1-.82-.87c0-.53.23-1.24.69-1.21a1.24,1.24,0,0,1,1.08,1.32C206.81,205.66,206.3,205.66,205.86,205.76Z"/><path class="cls-2" d="M166.35,132.39c.35,1-.13,1.21-.8,1.25-.42,0-.8-.15-.62-.55.29-.65.07-1.77,1-1.86S166.21,132.12,166.35,132.39Z"/><path class="cls-7" d="M557.3,134.45a1.72,1.72,0,0,1,.06,2.67C556.25,136.32,556.5,135.45,557.3,134.45Z"/><path class="cls-7" d="M168.83,199.75c1,.83,1,1.67,0,2.52C167.91,201.44,167.76,200.6,168.83,199.75Z"/><path class="cls-7" d="M5.72,3.3c1,.94,1.16,1.81.1,2.73C4.58,5.15,5.09,4.27,5.72,3.3Z"/><path class="cls-15" d="M367,51.24c-.81,0-1.84.41-1.79-1.1,0-.84.22-1.24,1.11-.92C366,50.06,367.27,50.4,367,51.24Z"/><path class="cls-3" d="M283.87,97.13c-.06.42.09,1-.68.94-.56,0-.85-.32-.78-.91s-.06-1.12.79-1.06S283.8,96.68,283.87,97.13Z"/><path class="cls-15" d="M39.47,158.77a1.27,1.27,0,0,1,.48-2.11c.43-.22,1.4-.45,1.3.73C40.29,157.37,40.52,158.9,39.47,158.77Z"/><path class="cls-13" d="M459.19,165.94a1,1,0,0,1,.53,1.45c-.34.58-1.06.22-1.62.28-.83.09-.79-.47-.72-1C458,166.46,458.91,167,459.19,165.94Z"/><path class="cls-15" d="M327.47,16.6c.07.67.15,1.34-.54,1.78-.8-.43-1.41-1-1-2.12Z"/><path class="cls-11" d="M518.62,191a.84.84,0,0,1-.93-1c0-.42-.07-1.2.76-1.14s.9.61.9,1.26S519.27,191.06,518.62,191Z"/><path class="cls-10" d="M688,173.1c0,1,0,1.89,0,2.84-1.09.05-1-.76-1-1.43S686.82,173,688,173.1Z"/><path class="cls-12" d="M256,293.44a2.12,2.12,0,0,0-1.82.38.76.76,0,0,1-.19-1.3,2.21,2.21,0,0,1,2.05-.07C256.46,292.62,256.4,293.12,256,293.44Z"/><path class="cls-9" d="M664.54,135.92c-.59-1-1.79,1.25-2.21-.49-.28-1.15.57-1.64,1.3-.74A9.82,9.82,0,0,1,664.54,135.92Z"/><path class="cls-6" d="M211.72,174.94c1.78.06.69,1.4.79,2.07.2,1.2-.81.54-1.34.58C211.23,176.68,212.25,176,211.72,174.94Z"/><path class="cls-15" d="M185.57,26.14a1.14,1.14,0,0,1-.88,1.69,1.19,1.19,0,0,1-1.1-1.68Z"/><path class="cls-10" d="M599.56.43h1.88c-.06.88-.37,1.79-1.33,1.72S599.91,1,599.56.43Z"/><path class="cls-2" d="M429,102.86c-.41.17-1,.56-1.21,0a2.93,2.93,0,0,1-.12-1.87c.19-.63.86-.34,1.36-.24C428.42,101.47,427.87,102.16,429,102.86Z"/><path class="cls-2" d="M652.21,77.39c.13-1.22,1-.59,1.64-.67s.55.28.58.68c.07.87-.56.71-1.06.78S652.62,77.62,652.21,77.39Z"/><path class="cls-14" d="M272.74,328.17c-.13.35.32,1.18-.61,1.07-.77-.1-.64-1-1-1.51-.22-.34.35-.58.79-.62C272.77,327,272.81,327.51,272.74,328.17Z"/><path class="cls-13" d="M441.9,210.17c1-.53.83-1.26.33-2,.29-.44.84-.51,1-.13a2.84,2.84,0,0,1,0,2.42C442.86,211.07,442.31,210.49,441.9,210.17Z"/><path class="cls-2" d="M459.19,165.94c-.28,1.07-1.19.52-1.81.7v-1.79A2.25,2.25,0,0,1,459.19,165.94Z"/><path class="cls-12" d="M66.35,344.32c-.6.38-1.32.7-1.72-.06-.22-.41-.45-1.32.59-1.45C66.22,342.85,65.73,344,66.35,344.32Z"/><path class="cls-12" d="M404.27,337.26c0,.65-.09,1-.75,1s-.85-.49-.91-1,.23-.84.81-.84S404.41,336.69,404.27,337.26Z"/><path class="cls-10" d="M103.92,214c-1.26-.41-.92-1.34-.7-2.22C105.49,211.85,104.18,213.08,103.92,214Z"/><path class="cls-12" d="M523.63,345.81c.57-.11,1.14-.16,1.06.67-.06.59.36,1.37-.48,1.69-.46.18-1,.18-1-.58C524.69,347.27,523.62,346.43,523.63,345.81Z"/><path class="cls-14" d="M429,102.86c-1.11-.7-.56-1.39,0-2.07,1,.24.79,1,.7,1.67C429.67,102.81,429.6,103.41,429,102.86Z"/><path class="cls-13" d="M652.21,77.39c.41.23.56.84,1.16.79-.09.67,0,1.73-1,1.29C651.55,79.13,651.75,78.12,652.21,77.39Z"/><path class="cls-9" d="M211.72,174.94c.53,1-.49,1.74-.55,2.65-1.25.2-.82-1.06-.7-1.18C210.94,176,211,175.12,211.72,174.94Z"/><path class="cls-4" d="M63.82,338.28c1.35.05.59,1.09.71,1.66s.33,1.29-.73,1.09c0-.5,0-1-.7-1h0C62.87,339.24,64.18,339.11,63.82,338.28Z"/><path class="cls-8" d="M66.35,344.32c-.62-.32-.13-1.47-1.13-1.51.09-.4-.16-1,.62-1,.6,0,.82.35.8.91S67,343.89,66.35,344.32Z"/><path class="cls-7" d="M1.42,134c.44.72,1.16.3,1.75.41.32,1.27-.6,1-1.26,1C.82,135.29,1.1,134.63,1.42,134Z"/><path class="cls-3" d="M53.33,233.6c1.3,0,.66,1,1,1.45s-.28.76-.49.65a2.35,2.35,0,0,1-1.07-1.59C52.63,233.6,53.12,233.63,53.33,233.6Z"/><path class="cls-11" d="M243.69,246.43c.66-.15.92.33,1.21.77-.11.55-.09,1.38-1,1S243.38,247.07,243.69,246.43Z"/><path class="cls-3" d="M39.47,158.77c1.05.13.82-1.4,1.78-1.38,0,.68.3,1.52-.33,2A1,1,0,0,1,39.47,158.77Z"/><path class="cls-13" d="M39.53,13.36c1.06-1.88,1.2.28,1.8.4-.19,1-.95.64-1.48.57S39.47,13.75,39.53,13.36Z"/><path class="cls-10" d="M185.57,26.14h-2c-.14-.87.35-1.08,1.09-1.06S185.77,25.37,185.57,26.14Z"/><path class="cls-10" d="M523.63,345.81c0,.62,1.06,1.46-.37,1.78-.89-.07-.73-.7-.67-1.27S523.19,345.79,523.63,345.81Z"/><path class="cls-15" d="M191,297.77c.64.9-.33,1.82,0,2.72-1.08.24-.8-.64-.73-1.06S189.75,297.86,191,297.77Z"/><path class="cls-8" d="M405.06,14.41c1.07.37,1.3-.79,2-1.1,0,.66.47,1.52-.58,1.71C406,15.11,405.12,15.55,405.06,14.41Z"/><path class="cls-13" d="M367,51.24c.28-.84-.95-1.18-.68-2,.5.08,1.32-.54,1.37.47C367.71,50.21,368.31,51.23,367,51.24Z"/><path class="cls-6" d="M199.65,227.7c.1.73-.43.62-.79.64s-1,0-1-.68a1.15,1.15,0,0,1,.88-1.15C199.69,226.37,199.06,227.53,199.65,227.7Z"/><path class="cls-7" d="M100.46,295.85a.67.67,0,0,1-.83-.28c.35-.89-.47-1.39-.69-2.09l1.42,0C100.4,294.25,100.43,295.05,100.46,295.85Z"/><path class="cls-10" d="M98.94,293.48c.22.7,1,1.2.69,2.09-.61-.16-1.38-.14-1.37-1C98.26,294.08,98,293.33,98.94,293.48Z"/><path class="cls-6" d="M351.09,62.09,349.21,62c0-.34,0-.69-.08-1C349.84,61.23,351.44,60,351.09,62.09Z"/><path class="cls-12" d="M438.64,382.42c0-.36-.1-.91.39-.79a1.45,1.45,0,0,1,1.09,1.15c.12.68-.55.8-.92.81C438.34,383.6,438.8,382.82,438.64,382.42Z"/><path class="cls-4" d="M418.93,210c-.53.72-.27,1.57-.38,2.36-1.31-.59-.61-1.73-.53-2.57C418.06,209.29,418.62,209.85,418.93,210Z"/><path class="cls-9" d="M527.5,63.48c-1,0-1.26,1-2,1.33C525.47,62.9,525.74,62.73,527.5,63.48Z"/><path class="cls-10" d="M323.68,199.57h1c0,1-.66,1.06-1.42,1.08s-.75-.51-.66-1.06Z"/><path class="cls-14" d="M491.73,241.8V243c-1.65-.35-1.8-.68-.86-1.88Z"/><path class="cls-6" d="M63.82,338.28c.36.83-1,1-.72,1.73l-.64.07C62.37,339.07,62.26,338,63.82,338.28Z"/><path class="cls-15" d="M323.68,199.57l-1.05,0c.15-.69-.74-2,1-1.77Z"/><path class="cls-10" d="M17.22,78.42c0-.58,0-1.16,0-1.73.52,0,1.11-.12,1.09.75S18,78.49,17.22,78.42Z"/><path class="cls-9" d="M100.46,295.85c0-.8-.06-1.6-.1-2.4C101.42,294.05,101.46,295,100.46,295.85Z"/><path class="cls-6" d="M62.4,342.79c.46-.48-1-1.79.73-1.72C62.69,341.56,63.78,342.7,62.4,342.79Z"/><path class="cls-6" d="M63.1,340c.67,0,.71.51.7,1l-.69.05C63.11,340.72,63.1,340.37,63.1,340Z"/></g></svg>