<?xml version="1.0" encoding="utf-8"?>
<!-- Generator: Adobe Illustrator 24.1.0, SVG Export Plug-In . SVG Version: 6.00 Build 0)  -->
<svg version="1.1" xmlns="http://www.w3.org/2000/svg" xmlns:xlink="http://www.w3.org/1999/xlink" x="0px" y="0px"
	 viewBox="0 0 438.9 48.9" style="enable-background:new 0 0 438.9 48.9;" xml:space="preserve">
<style type="text/css">
	.st0{display:none;}
	.st1{fill:none;stroke:#84FF86;stroke-miterlimit:10;}
	.st2{fill:none;stroke:#61FFAF;stroke-miterlimit:10;}
	.st3{fill:none;stroke:#FF7B45;stroke-miterlimit:10;}
	.st4{fill:none;stroke:#FAFAFA;stroke-miterlimit:10;}
	.st5{fill:none;stroke:#74C0FA;stroke-miterlimit:10;}
	.st6{fill:none;stroke:#C1A5FA;stroke-miterlimit:10;}
	.st7{fill:none;stroke:#7D1EC5;stroke-miterlimit:10;}
	.st8{fill:none;stroke:#3FE7FF;stroke-miterlimit:10;}
	.st9{fill:none;stroke:#FAFAFA;stroke-width:3;stroke-miterlimit:10;}
	.st10{fill:none;stroke:#7D1EC5;stroke-width:3;stroke-miterlimit:10;}
	.st11{fill:none;stroke:#3FE7FF;stroke-width:3;stroke-miterlimit:10;}
</style>
<g id="Layer_3">
</g>
<g id="Layer_1" class="st0">
</g>
<g id="Layer_2">
	<g>
		<path class="st9" d="M462.6,26.1c-4-0.9-8.6-1.7-13.8-2.6C368.5,10.7,151.7,4.9,92.2,15.7C56.9,22.1,16.8,30.9-28.4,37.6"/>
		<path class="st10" d="M448.8,42.9c-12.2-2.8-26.4-6.4-46.9-10.6C336.3,18.7,94.5,15,31.3,27.5c-17.3,3.4-35.7,7.4-55.3,11.4"/>
		<path class="st11" d="M449.6,32.4c-0.8-0.2-1.7-0.4-2.5-0.6C381.7,17.3,140.1,10,76.7,21.5C44.4,27.3,8.1,35.2-32.5,41.6"/>
	</g>
</g>
</svg>
